<svg width="228" height="228" viewBox="0 0 228 228" fill="none" xmlns="http://www.w3.org/2000/svg">
<path d="M227.333 114C227.333 176.583 176.583 227.333 114 227.333C51.4173 227.333 0.666664 176.583 0.666664 114C0.666664 51.4173 51.4173 0.666672 114 0.666672C176.583 0.666672 227.333 51.4173 227.333 114Z" fill="#4CAF50"/>
<path d="M114 0.666672V114L159.333 136.667L109.223 227.333C111.019 227.333 112.204 227.333 114 227.333C176.634 227.333 227.333 176.634 227.333 114C227.333 51.3663 176.634 0.666672 114 0.666672Z" fill="#FFC107"/>
<path d="M227.333 114C227.333 176.583 176.583 227.333 114 227.333C51.4173 227.333 0.666664 176.583 0.666664 114C0.666664 51.4173 51.4173 0.666672 114 0.666672C176.583 0.666672 227.333 51.4173 227.333 114Z" fill="#4CAF50"/>
<path d="M114 0.666672V114L159.333 136.667L109.223 227.333C111.019 227.333 112.204 227.333 114 227.333C176.634 227.333 227.333 176.634 227.333 114C227.333 51.3663 176.634 0.666672 114 0.666672Z" fill="#FFC107"/>
<path d="M215.093 63H114V136.667L97 131L18.5733 53.14H18.46C38.52 21.5767 73.8233 0.666672 114 0.666672C158.2 0.666672 196.45 26.0533 215.093 63Z" fill="#F44336"/>
<path d="M18.562 53.1627L68.6723 137.381L97 131L18.562 53.1627Z" fill="#DD2C00"/>
<path d="M109.223 227.333L159.849 136.332L136.667 119.667L109.223 227.333Z" fill="#558B2F"/>
<path d="M215.235 63H114L105.052 88.9533L215.235 63Z" fill="#F9A825"/>
<path d="M165 114C165 142.158 142.158 165 114 165C85.8423 165 63 142.158 63 114C63 85.8423 85.8423 63 114 63C142.158 63 165 85.8423 165 114Z" fill="white"/>
<path d="M153.667 114C153.667 135.913 135.913 153.667 114 153.667C92.087 153.667 74.3333 135.913 74.3333 114C74.3333 92.087 92.087 74.3333 114 74.3333C135.913 74.3333 153.667 92.087 153.667 114Z" fill="#2196F3"/>
</svg>
