<svg width="512" height="502" viewBox="0 0 512 502" fill="none" xmlns="http://www.w3.org/2000/svg">
<path fill-rule="evenodd" clip-rule="evenodd" d="M238.371 1.043C137.187 7.854 49.277 74.812 14.851 171.291C9.64901 185.87 4.69201 206.221 2.37701 222.5C0.13801 238.244 -0.11999 272.082 1.87701 288C12.111 369.559 59.402 440.561 130.589 481.245C146.991 490.619 172.391 501.189 178.924 501.359C184.043 501.492 188.324 499.408 190.537 495.708C192.308 492.746 192.431 490.701 192.147 469.003C191.978 456.08 191.764 445.446 191.67 445.373C191.577 445.299 187.9 445.836 183.5 446.566C157.156 450.939 133.765 444.966 118.854 430.059C113.124 424.331 111.29 421.505 105.538 409.542C96.074 389.858 90.61 382.405 80 374.708C72.2 369.05 68 364.891 68 362.827C68 357.818 80.108 356.136 89.745 359.806C102.168 364.538 110.527 371.745 119.639 385.581C132.215 404.675 147.976 413.166 168.051 411.66C175.786 411.079 191.408 406.767 192.567 404.892C192.922 404.317 193.852 401.108 194.633 397.761C196.495 389.778 201.357 379.717 205.648 374.967C209.647 370.541 210.032 370.806 197 369.001C186.744 367.581 168.848 363.004 160.165 359.58C124 345.319 103.087 318.618 95.27 276.724C92.771 263.335 92.799 230.391 95.318 220C98.927 205.109 105.574 191.512 114.752 180.243L119.121 174.88L117.612 170.19C112.429 154.08 113.021 133.158 119.208 113.829C121.17 107.697 121.605 107.109 124.596 106.548C135.316 104.537 159.8 113.28 182.177 127.11L191.984 133.17L200.742 131.151C221.05 126.467 230.469 125.505 256 125.505C281.551 125.505 290.948 126.467 311.323 131.166L320.145 133.201L327.823 128.398C343.121 118.829 358.18 111.68 368.5 109.086C376.984 106.954 384.359 105.987 387.579 106.586C390.359 107.103 390.864 107.804 392.795 113.829C398.497 131.619 399.453 154.226 395.086 168L393.025 174.5L395.041 177C404.782 189.075 412.463 203.927 416.17 217.854C418.793 227.704 419.765 252.75 418.067 266.696C410.658 327.535 377.436 360.188 314 368.982C301.987 370.647 302.165 370.533 305.727 374.282C310.314 379.11 314.73 387.7 317.185 396.573C319.246 404.021 319.413 407.218 319.939 449.5C320.552 498.659 320.426 497.683 326.472 500.204C331.168 502.163 336.707 501.454 346.5 497.643C381.295 484.1 408.671 466.455 434.873 440.685C476.586 399.659 502.781 346.508 510.123 288C512.12 272.082 511.862 238.244 509.623 222.5C492.289 100.6 394.493 9.351 272.269 1.036C256.16 -0.0599988 254.76 -0.0599985 238.371 1.043Z"/>
</svg>
