<svg xmlns="http://www.w3.org/2000/svg" width="512" height="512" viewBox="0 0 512 512" version="1.1"><path d="" stroke="none" fill="currentColor" fill-rule="evenodd"/><path d="M 228 1.100 C 198.916 4.359, 169.216 13.107, 143 26.135 C 115.518 39.792, 96.547 53.404, 74.940 74.969 C 37.414 112.422, 12.963 159.063, 3.626 211 C -1.330 238.573, -1.331 273.403, 3.624 301 C 9.106 331.523, 22.776 367.089, 38.603 392 C 59.384 424.710, 90.141 455.158, 122 474.560 C 148.700 490.819, 180.449 502.882, 211 508.374 C 238.573 513.330, 273.403 513.331, 301 508.376 C 331.523 502.894, 367.089 489.224, 392 473.397 C 424.710 452.616, 455.158 421.859, 474.560 390 C 493.810 358.389, 507.937 317.181, 510.642 284.746 C 511 280.451, 511.677 276.700, 512.146 276.410 C 512.616 276.119, 513 266.432, 513 254.882 C 513 243.332, 512.614 234.121, 512.141 234.413 C 511.669 234.704, 510.992 231.456, 510.637 227.194 C 507.924 194.665, 492.347 149.826, 473.397 120 C 457.780 95.418, 432.647 67.949, 411 51.803 C 372.674 23.217, 329.394 6.084, 282.789 1.049 C 271.576 -0.162, 238.994 -0.132, 228 1.100 M 241 41.039 C 207.469 43.205, 173.523 53.970, 144.056 71.783 C 118.059 87.497, 92.025 113.054, 74.031 140.522 C 62.676 157.857, 51.076 185.343, 46.188 206.500 C 38.843 238.287, 38.843 273.713, 46.188 305.500 C 58.499 358.782, 92.477 406.495, 140.522 437.969 C 157.857 449.324, 185.343 460.924, 206.500 465.812 C 238.287 473.157, 273.713 473.157, 305.500 465.812 C 358.782 453.501, 406.495 419.523, 437.969 371.478 C 449.324 354.143, 460.924 326.657, 465.812 305.500 C 473.157 273.713, 473.157 238.287, 465.812 206.500 C 453.501 153.218, 419.523 105.505, 371.478 74.031 C 354.150 62.680, 326.682 51.087, 305.500 46.184 C 285.566 41.570, 261.948 39.686, 241 41.039 M 346.500 170.495 C 344.850 171.372, 315.938 199.629, 282.252 233.289 L 221.004 294.490 194.752 268.281 C 177.435 250.993, 167.235 241.550, 164.782 240.536 C 154.843 236.429, 143.819 240.621, 138.797 250.418 C 135.914 256.040, 136.585 265.352, 140.255 270.644 C 145.160 277.720, 208.260 339.793, 212.236 341.454 C 217.025 343.455, 225.235 343.431, 229.300 341.404 C 233.900 339.110, 370.672 202.387, 373.173 197.582 C 376.265 191.641, 375.451 182.360, 371.397 177.352 C 366.250 170.992, 363.640 169.596, 356.218 169.232 C 351.467 168.999, 348.622 169.369, 346.500 170.495 M 0.425 256 C 0.425 267.825, 0.569 272.663, 0.746 266.750 C 0.923 260.837, 0.923 251.162, 0.746 245.250 C 0.569 239.338, 0.425 244.175, 0.425 256" stroke="none" fill="currentColor" fill-rule="evenodd"/></svg>